<svg xmlns="http://www.w3.org/2000/svg" version="1.1" xmlns:xlink="http://www.w3.org/1999/xlink" xmlns:svgjs="http://svgjs.dev/svgjs" width="1500" height="1500" viewBox="0 0 1500 1500"><rect width="1500" height="1500" fill="#000000"></rect><g transform="matrix(0.6666666666666666,0,0,0.6666666666666666,249.39472442134422,566.8412250156128)"><svg viewBox="0 0 396 145" data-background-color="#222222" preserveAspectRatio="xMidYMid meet" height="549" width="1500" xmlns="http://www.w3.org/2000/svg" xmlns:xlink="http://www.w3.org/1999/xlink"><g id="tight-bounds" transform="matrix(1,0,0,1,0.23999494286027812,0.06290265774903503)"><svg viewBox="0 0 395.52 144.8738531739145" height="144.8738531739145" width="395.52"><g><svg viewBox="0 0 395.52 144.8738531739145" height="144.8738531739145" width="395.52"><g transform="matrix(1,0,0,1,0,74.55595602816412)"><svg viewBox="0 0 395.52 70.3178971457504" height="70.3178971457504" width="395.52"><g id="textblocktransform"><svg viewBox="0 0 395.52 70.3178971457504" height="70.3178971457504" width="395.52" id="textblock"><g><svg viewBox="0 0 395.52 70.3178971457504" height="70.3178971457504" width="395.52"><g transform="matrix(1,0,0,1,0,0)"><svg width="395.52" viewBox="-0.4218012991706938 -18.152866777076785 269.52475759467984 47.91773514471046" height="70.3178971457504" data-palette-color="#fdfdfd"><path d="M14.625-0.089v0l-0.149 0.766c2.461 0.478 4.586 0.235 6.376-0.729 1.796-0.962 2.904-2.526 3.325-4.693v0 0 0 0c0.385-1.983-0.015-3.718-1.201-5.204-1.184-1.493-3.023-2.481-5.516-2.965v0 0 0 0l-6.941-1.347c-0.098-0.019-0.195 0.006-0.29 0.077-0.094 0.063-0.15 0.141-0.167 0.232v0l-5.168 26.633c-0.018 0.092 0.005 0.184 0.068 0.278 0.062 0.1 0.142 0.16 0.24 0.179v0l7.756 1.505v0 0 0c2.428 0.471 4.517 0.204 6.267-0.801 1.75-1.005 2.832-2.574 3.246-4.707v0 0 0 0c0.447-2.304-0.023-4.276-1.408-5.917-1.386-1.641-3.467-2.73-6.242-3.269v0l-0.148 0.766c2.552 0.495 4.465 1.471 5.737 2.926 1.273 1.456 1.704 3.237 1.296 5.345v0 0 0 0c-0.377 1.944-1.36 3.349-2.947 4.216-1.595 0.872-3.479 1.097-5.653 0.675v0 0 0 0l-7.755-1.504c-0.098-0.019-0.075 0.074 0.068 0.278 0.142 0.211 0.223 0.271 0.241 0.179v0l5.168-26.634c0.018-0.092-0.079-0.066-0.29 0.077-0.21 0.136-0.266 0.213-0.167 0.232v0l6.94 1.347v0 0 0c2.271 0.441 3.942 1.312 5.014 2.613 1.072 1.301 1.434 2.849 1.086 4.642v0 0 0 0c-0.384 1.976-1.392 3.377-3.026 4.2-1.635 0.83-3.555 1.032-5.76 0.604zM5.457 13.086l4.161-2.228-0.371-0.663-4.149 2.22c0 0 0.008-0.005 0.024-0.016 0.017-0.017 0.025-0.026 0.025-0.025v0l-5.309 2.056 0.253 0.742 5.307-2.047c0.033 0.006 0.051 0 0.055-0.02 0.003-0.013 0.004-0.02 0.004-0.019zM10.696-14.175l-4.156-3.883-0.513 0.593 4.155 3.893c0 0-0.005-0.011-0.014-0.034-0.011-0.016-0.016-0.023-0.016-0.023v0l3.018 3.611 0.591-0.476-3.025-3.623c0 0 0.001-0.007 0.004-0.019 0.004-0.02-0.011-0.033-0.044-0.039zM8.124-0.658l3.936-2.068-0.368-0.672-3.927 2.07c-0.111 0.046-0.179 0.135-0.204 0.265-0.024 0.124 0.007 0.229 0.092 0.314v0l2.838 3.535 0.594-0.486-2.849-3.537c-0.08-0.077-0.145 0.013-0.194 0.268-0.05 0.255-0.022 0.359 0.082 0.311zM14.821-0.051l-6.803-1.32-0.149 0.766 6.804 1.32v0 0 0l7.597 1.27 0.148-0.765-7.597-1.271v0 0zM-0.114 15.183v0l12.742 2.472c2.297 0.446 4.387 0.42 6.269-0.077 1.889-0.496 3.461-1.389 4.717-2.68 1.263-1.296 2.081-2.903 2.454-4.821v0c0.347-1.787 0.21-3.429-0.409-4.928-0.62-1.492-1.638-2.773-3.054-3.842v0l-0.13 0.667c1.392-0.524 2.564-1.316 3.517-2.373 0.952-1.058 1.58-2.369 1.884-3.933v0c0.359-1.852 0.203-3.563-0.471-5.134-0.673-1.57-1.811-2.918-3.412-4.044-1.609-1.12-3.625-1.916-6.046-2.386v0l-11.594-2.25c-0.124-0.024-0.24 0.011-0.346 0.106-0.1 0.096-0.133 0.229-0.098 0.399v0c0.168 0.501 0.268 1.084 0.302 1.75 0.039 0.673-0.011 1.577-0.149 2.711-0.137 1.128-0.36 2.606-0.667 4.434-0.301 1.83-0.727 4.168-1.28 7.015v0c-0.582 2.997-1.086 5.456-1.513 7.377-0.42 1.922-0.785 3.467-1.093 4.636-0.307 1.163-0.606 2.056-0.897 2.678-0.284 0.624-0.6 1.15-0.948 1.579v0c-0.091 0.118-0.11 0.25-0.056 0.396 0.061 0.141 0.154 0.223 0.278 0.248zM13.396-9.872l3.446 0.668c1.119 0.217 1.924 0.672 2.414 1.365 0.497 0.694 0.646 1.552 0.448 2.573v0c-0.198 1.021-0.678 1.746-1.441 2.175-0.762 0.429-1.654 0.545-2.675 0.347v0l-3.642-0.707 0.307 0.467c0.343-1.591 0.643-2.965 0.902-4.124 0.259-1.159 0.492-2.183 0.698-3.073v0zM10.71 2.92l4.123 0.8c1.243 0.241 2.156 0.734 2.738 1.479 0.589 0.746 0.769 1.708 0.541 2.886v0c-0.23 1.185-0.77 2.007-1.62 2.466-0.858 0.465-1.875 0.583-3.054 0.355v0l-3.926-0.762 0.308 0.457c0.153-0.962 0.338-2.094 0.557-3.396 0.217-1.296 0.481-2.827 0.79-4.593v0zM12.776 16.89l-12.742-2.473 0.222 0.644c0.349-0.435 0.672-0.98 0.969-1.635 0.289-0.65 0.606-1.563 0.949-2.74 0.344-1.176 0.731-2.751 1.161-4.725 0.436-1.966 0.951-4.481 1.546-7.544v0c0.564-2.906 1.001-5.3 1.312-7.181 0.316-1.874 0.528-3.388 0.637-4.542 0.108-1.154 0.148-2.073 0.117-2.758-0.037-0.686-0.136-1.296-0.296-1.83v0l-0.447 0.514 11.594 2.25c3.41 0.662 5.938 1.964 7.585 3.906 1.647 1.943 2.222 4.19 1.727 6.743v0c-0.273 1.407-0.837 2.598-1.692 3.573-0.855 0.975-1.92 1.688-3.196 2.14v0c-0.144 0.04-0.231 0.139-0.261 0.296-0.03 0.157 0.013 0.281 0.132 0.372v0c1.329 0.991 2.275 2.17 2.838 3.535 0.563 1.366 0.687 2.863 0.371 4.493v0c-0.347 1.787-1.108 3.279-2.285 4.477-1.176 1.198-2.642 2.014-4.396 2.447-1.763 0.439-3.711 0.451-5.845 0.038zM16.99-9.969v0l-3.445-0.669c-0.098-0.019-0.193-0.003-0.285 0.047-0.09 0.044-0.148 0.131-0.173 0.262v0c-0.207 0.89-0.439 1.915-0.698 3.073-0.259 1.159-0.559 2.533-0.902 4.123v0c-0.018 0.092 0.005 0.184 0.068 0.279 0.069 0.102 0.149 0.161 0.241 0.179v0l3.642 0.706c1.211 0.235 2.295 0.072 3.253-0.489 0.951-0.562 1.544-1.449 1.779-2.66v0c0.236-1.217 0.052-2.265-0.552-3.142-0.61-0.879-1.586-1.449-2.928-1.709zM14.982 2.955v0l-4.124-0.8c-0.092-0.018-0.188 0.004-0.288 0.066-0.095 0.07-0.151 0.151-0.169 0.242v0c-0.309 1.767-0.572 3.298-0.789 4.594-0.219 1.302-0.404 2.434-0.557 3.396v0c-0.025 0.131-0.005 0.233 0.062 0.307 0.066 0.081 0.148 0.131 0.246 0.15v0l3.927 0.762c1.374 0.267 2.581 0.104 3.619-0.489 1.045-0.592 1.701-1.575 1.968-2.95v0c0.267-1.374 0.059-2.525-0.624-3.452-0.683-0.927-1.773-1.536-3.271-1.826zM50.552-6.278v0l0.207-0.767c-1.14-0.266-2.471-0.538-3.993-0.815-1.521-0.283-3.025-0.554-4.51-0.811-1.491-0.258-2.803-0.456-3.935-0.593v0c-0.132-0.02-0.234 0.009-0.307 0.086-0.078 0.069-0.124 0.15-0.137 0.242v0l-4.043 26.827c-0.014 0.092 0.006 0.183 0.06 0.272 0.046 0.095 0.136 0.152 0.267 0.172v0c1.156 0.201 2.474 0.406 3.953 0.615 1.479 0.209 2.971 0.394 4.477 0.554 1.506 0.16 2.847 0.277 4.023 0.353v0l0.017-0.786c-1.142-0.071-2.457-0.185-3.943-0.341-1.493-0.158-2.979-0.341-4.458-0.551-1.479-0.209-2.796-0.415-3.952-0.616v0c-0.099-0.015-0.072 0.077 0.08 0.275 0.151 0.205 0.234 0.261 0.247 0.169v0l4.043-26.827c0.014-0.092-0.082-0.063-0.286 0.088-0.204 0.145-0.256 0.224-0.158 0.24v0c1.131 0.144 2.443 0.341 3.936 0.593 1.485 0.257 2.981 0.527 4.49 0.808 1.503 0.274 2.81 0.545 3.922 0.813zM36.255 4.442l11.144 1.679 0.116-0.771-11.144-1.68zM34.414 18.272l4.076-2.491-0.396-0.656-4.067 2.492c0 0 0.008-0.006 0.023-0.017 0.016-0.018 0.024-0.027 0.024-0.027v0l-5.218 2.278 0.284 0.731 5.217-2.268c0.033 0.005 0.051-0.002 0.054-0.023 0.002-0.013 0.003-0.02 0.003-0.019zM38.501-9.186l-4.316-3.705-0.487 0.615 4.314 3.714c0 0-0.005-0.011-0.015-0.032-0.011-0.015-0.017-0.023-0.017-0.023v0l3.152 3.579 0.573-0.51-3.162-3.581c0 0 0.001-0.007 0.003-0.02 0.003-0.02-0.012-0.032-0.045-0.037zM50.911-6.375l3.488-2.883-0.502-0.561-3.497 2.871c-0.038 0.028-0.072 0.097-0.102 0.207-0.037 0.109-0.043 0.199-0.02 0.27v0l2.364 4.645 0.744-0.374-2.353-4.652c-0.056-0.076-0.111 0-0.166 0.227-0.047 0.222-0.033 0.305 0.044 0.25zM46.872 19.755l4.66-4.082-0.51-0.572-4.661 4.081c-0.069 0.057-0.111 0.132-0.124 0.224-0.015 0.099 0.002 0.186 0.051 0.261v0l2.496 3.774 0.645-0.389-2.484-3.782c-0.056-0.076-0.091 0-0.105 0.227-0.022 0.233-0.011 0.319 0.032 0.258zM47.708 6.016l3.593-3.504-0.511-0.572-3.582 3.505c-0.076 0.056-0.121 0.133-0.136 0.232-0.014 0.092 0.007 0.176 0.063 0.252v0l2.398 4.356 0.656-0.396-2.408-4.358c-0.024-0.064-0.053 0.016-0.086 0.24-0.034 0.224-0.029 0.306 0.013 0.245zM36.507 4.378l3.868-2.38-0.398-0.646-3.856 2.371c-0.109 0.051-0.173 0.142-0.193 0.275-0.019 0.125 0.016 0.228 0.105 0.309v0l2.984 3.413 0.573-0.511-2.995-3.414c-0.083-0.073-0.144 0.019-0.183 0.276-0.039 0.257-0.007 0.36 0.095 0.307zM28.935 20.601v0l20.113 3.031c0.099 0.015 0.186-0.006 0.262-0.061 0.068-0.05 0.126-0.123 0.174-0.217v0l2.177-7.863c0.057-0.153 0.02-0.29-0.11-0.411-0.13-0.121-0.288-0.128-0.473-0.021v0c-0.615 0.366-1.376 0.629-2.283 0.789-0.914 0.159-2.185 0.183-3.813 0.072-1.627-0.117-3.836-0.403-6.626-0.857v0l0.327 0.444c0.112-0.967 0.25-2.106 0.414-3.417 0.163-1.304 0.359-2.828 0.588-4.573v0l-0.444 0.328c2.545 0.383 4.478 0.709 5.8 0.975 1.328 0.268 2.319 0.515 2.973 0.741 0.653 0.233 1.187 0.513 1.602 0.838v0c0.148 0.09 0.284 0.104 0.409 0.041 0.125-0.069 0.197-0.166 0.216-0.291v0l1.184-7.861c0.025-0.165-0.014-0.285-0.117-0.361-0.102-0.083-0.237-0.103-0.405-0.061v0c-0.494 0.189-1.088 0.305-1.782 0.348-0.693 0.037-1.72-0.02-3.079-0.171-1.358-0.158-3.296-0.409-5.813-0.754v0l0.328 0.443c0.26-1.505 0.493-2.825 0.698-3.96 0.206-1.142 0.39-2.142 0.553-3.001v0l-0.444 0.328c2.739 0.345 4.846 0.703 6.321 1.073 1.475 0.371 2.574 0.725 3.298 1.064 0.718 0.337 1.312 0.69 1.783 1.057v0c0.155 0.091 0.294 0.105 0.418 0.043 0.125-0.069 0.197-0.166 0.216-0.291v0l1.134-7.525c0.015-0.099-0.011-0.194-0.079-0.285-0.067-0.091-0.15-0.144-0.249-0.159v0l-20.212-3.046c-0.125-0.019-0.239 0.021-0.341 0.121-0.096 0.1-0.123 0.234-0.081 0.402v0c0.189 0.494 0.314 1.072 0.375 1.735 0.067 0.671 0.056 1.576-0.035 2.716-0.09 1.133-0.25 2.619-0.479 4.458-0.223 1.841-0.551 4.195-0.984 7.062v0c-0.455 3.019-0.855 5.497-1.201 7.434-0.339 1.938-0.638 3.497-0.897 4.679-0.258 1.175-0.519 2.079-0.783 2.713-0.258 0.635-0.551 1.174-0.881 1.617v0c-0.086 0.122-0.099 0.255-0.04 0.399 0.067 0.138 0.163 0.217 0.288 0.235zM49.164 22.861l-20.113-3.031 0.249 0.634c0.331-0.449 0.63-1.007 0.899-1.675 0.262-0.662 0.539-1.587 0.833-2.777 0.294-1.189 0.614-2.779 0.962-4.77 0.353-1.983 0.762-4.517 1.227-7.602v0c0.441-2.927 0.777-5.337 1.008-7.23 0.237-1.886 0.385-3.407 0.446-4.565 0.06-1.157 0.06-2.078 0.001-2.76-0.065-0.684-0.19-1.289-0.374-1.816v0l-0.424 0.533 20.212 3.045-0.328-0.443-1.134 7.525 0.625-0.25c-0.497-0.372-1.122-0.739-1.877-1.102-0.749-0.356-1.885-0.732-3.41-1.131-1.519-0.391-3.681-0.764-6.485-1.119v0c-0.099-0.015-0.192 0.001-0.281 0.049-0.089 0.054-0.143 0.147-0.163 0.279v0c-0.163 0.859-0.348 1.859-0.554 3.001-0.205 1.135-0.437 2.456-0.697 3.96v0c-0.015 0.099 0.011 0.194 0.078 0.285 0.074 0.092 0.157 0.145 0.249 0.159v0c1.997 0.301 3.619 0.522 4.866 0.662 1.241 0.133 2.247 0.211 3.019 0.233 0.773 0.015 1.393-0.006 1.86-0.064 0.468-0.064 0.911-0.163 1.329-0.295v0l-0.533-0.424-1.185 7.861 0.634-0.248c-0.359-0.256-0.753-0.481-1.182-0.674-0.428-0.199-1.016-0.396-1.762-0.589-0.746-0.193-1.742-0.407-2.988-0.642-1.245-0.241-2.849-0.51-4.813-0.807v0c-0.092-0.014-0.188 0.016-0.287 0.089-0.091 0.067-0.143 0.147-0.157 0.239v0c-0.229 1.745-0.425 3.27-0.588 4.573-0.164 1.31-0.302 2.449-0.414 3.417v0c-0.02 0.132 0.005 0.237 0.074 0.314 0.07 0.071 0.155 0.114 0.253 0.129v0c2.922 0.474 5.221 0.763 6.898 0.868 1.677 0.104 2.991 0.063 3.943-0.124 0.944-0.181 1.743-0.469 2.395-0.863v0l-0.571-0.44-2.176 7.864zM61.956 14.293l-3.046 6.46 0.747 0.366 3.046-6.46v0 0 0l8.793-18.338c0.04-0.063-0.035-0.047-0.226 0.048-0.19 0.095-0.252 0.146-0.186 0.152v0l2.717 0.271c0.066 0.007 0.016-0.055-0.152-0.186-0.168-0.131-0.239-0.161-0.212-0.091v0l5.048 19.718c0.033 0.003 0.04 0.004 0.02 0.002-0.013-0.001-0.02-0.002-0.02-0.002v0l1.611 6.924 0.805-0.211-1.611-6.924v0 0 0l-5.049-19.719c-0.083-0.176-0.204-0.272-0.363-0.287v0l-2.716-0.271c-0.159-0.016-0.297 0.054-0.413 0.21v0l-8.793 18.338v0 0zM62.291 14.859l16.558 1.651 0.078-0.776-16.558-1.651zM71.48-4.022l-1.841-4.113-0.725 0.319 1.851 4.114c-0.003 0.033-0.012 0.016-0.025-0.052-0.007-0.068-0.012-0.085-0.015-0.052v0l0.598 5.798c0.047 0.199 0.167 0.308 0.359 0.327 0.192 0.019 0.331-0.064 0.417-0.25v0l2.119-5.527c0.003-0.033-0.015-0.018-0.055 0.045-0.04 0.063-0.041 0.08-0.005 0.05v0l2.915-3.639-0.638-0.455-2.915 3.638c0 0-0.001 0.007-0.002 0.02-0.002 0.02-0.021 0.041-0.057 0.065v0l-2.119 5.527c-0.052 0.189 0.073 0.309 0.377 0.359 0.31 0.044 0.444-0.05 0.4-0.282v0l-0.598-5.798c0 0-0.006-0.007-0.018-0.022-0.019-0.015-0.026-0.039-0.023-0.072zM62.544 14.844l4.624-2.634-0.42-0.725-4.623 2.624c-0.073 0.06-0.122 0.145-0.146 0.257-0.031 0.111-0.019 0.219 0.038 0.325v0l2.029 3.237 0.635-0.429-2.029-3.237c-0.027-0.07-0.079 0.016-0.156 0.256-0.07 0.234-0.054 0.343 0.048 0.326zM79.111 15.803l-4.452-3.529-0.456 0.638 4.451 3.539c0.097 0.036 0.132-0.077 0.105-0.342-0.021-0.263-0.069-0.349-0.146-0.255v0l-3.066 2.729 0.539 0.546 3.066-2.729c0.073-0.06 0.116-0.156 0.129-0.289 0.013-0.126-0.044-0.229-0.17-0.308zM59.016 21.206l3.88 3.813 0.545-0.528-3.879-3.824c-0.06-0.066-0.129-0.113-0.207-0.141-0.085-0.022-0.16-0.006-0.226 0.048v0l-6.071 2.831 0.32 0.716 6.07-2.822c0.066-0.06-0.002-0.111-0.206-0.151-0.211-0.034-0.287-0.015-0.226 0.058zM80.265 23.375l5.732 3.998 0.455-0.638-5.73-4.008c-0.054-0.066-0.124-0.096-0.212-0.092-0.082 0.012-0.155 0.045-0.221 0.099v0l-4.907 2.948 0.43 0.625 4.896-2.938c0.07-0.027-0.002-0.05-0.214-0.072-0.206-0.021-0.282 0.005-0.229 0.078zM64.736 17.857l-0.417 0.249 11.463 1.144-0.359-0.328c0.252 1.365 0.404 2.466 0.455 3.302 0.044 0.835 0.015 1.526-0.086 2.071-0.101 0.546-0.276 1.051-0.523 1.516v0c-0.046 0.129-0.042 0.254 0.013 0.373 0.055 0.119 0.146 0.185 0.272 0.198v0l10.637 1.061c0.159 0.016 0.279-0.046 0.36-0.186 0.081-0.139 0.078-0.277-0.009-0.412v0c-0.309-0.527-0.616-1.147-0.92-1.861-0.304-0.714-0.649-1.686-1.036-2.917-0.379-1.237-0.859-2.879-1.438-4.927-0.579-2.054-1.299-4.675-2.16-7.863v0c-0.781-2.986-1.416-5.451-1.906-7.396-0.496-1.945-0.874-3.494-1.135-4.645-0.26-1.158-0.446-2.078-0.559-2.759-0.113-0.681-0.193-1.252-0.241-1.713v0c-0.023-0.103-0.065-0.187-0.126-0.254-0.06-0.073-0.136-0.114-0.228-0.123v0l-7.473-0.745c-0.1-0.01-0.192 0.014-0.279 0.073-0.086 0.052-0.135 0.144-0.148 0.276v0c-0.081 0.481-0.246 1.061-0.495 1.74-0.249 0.679-0.639 1.571-1.172 2.677-0.539 1.105-1.239 2.546-2.099 4.323-0.867 1.776-1.955 3.989-3.265 6.639v0c-1.467 2.956-2.691 5.383-3.67 7.281-0.973 1.893-1.767 3.408-2.383 4.546-0.622 1.131-1.152 2.016-1.591 2.656-0.439 0.64-0.862 1.187-1.27 1.642v0c-0.105 0.117-0.136 0.251-0.09 0.403 0.052 0.153 0.161 0.237 0.326 0.254v0l9.951 0.992c0.159 0.016 0.278-0.029 0.355-0.136 0.078-0.106 0.09-0.229 0.037-0.368v0c-0.118-0.501-0.179-1.029-0.184-1.586-0.011-0.557 0.097-1.24 0.325-2.048 0.228-0.808 0.584-1.858 1.068-3.149zM72.094 2.119l-0.776-0.077 2.715 10.662 0.442-0.499-7.483-0.746 0.334 0.576zM75.86 18.473l-11.463-1.143c-0.093-0.009-0.175 0.006-0.246 0.046-0.071 0.04-0.128 0.108-0.171 0.204v0c-0.527 1.388-0.901 2.52-1.123 3.396-0.215 0.876-0.311 1.61-0.29 2.202 0.021 0.592 0.102 1.156 0.244 1.692v0l0.402-0.502-9.951-0.993 0.226 0.656c0.433-0.446 0.873-0.998 1.321-1.657 0.441-0.659 0.98-1.56 1.616-2.703 0.637-1.149 1.443-2.68 2.418-4.593 0.975-1.913 2.197-4.364 3.667-7.352v0c1.349-2.706 2.465-4.963 3.349-6.771 0.884-1.808 1.596-3.274 2.137-4.4 0.534-1.119 0.926-2.028 1.176-2.727 0.25-0.692 0.416-1.278 0.497-1.759v0l-0.427 0.349 7.473 0.745-0.354-0.377c0.045 0.494 0.123 1.081 0.236 1.762 0.113 0.681 0.298 1.614 0.555 2.799 0.257 1.185 0.64 2.75 1.15 4.698 0.509 1.947 1.169 4.431 1.98 7.453v0c0.851 3.22 1.569 5.865 2.154 7.933 0.578 2.068 1.065 3.727 1.463 4.979 0.398 1.246 0.749 2.235 1.05 2.969 0.302 0.734 0.621 1.362 0.958 1.885v0l0.361-0.598-10.637-1.06 0.295 0.572c0.277-0.495 0.475-1.031 0.592-1.609 0.125-0.577 0.168-1.316 0.131-2.218-0.044-0.902-0.187-2.086-0.43-3.55v0c-0.023-0.103-0.066-0.181-0.127-0.234-0.062-0.053-0.139-0.084-0.232-0.094zM74.839 12.483l-2.715-10.663c-0.05-0.166-0.172-0.258-0.365-0.277-0.192-0.019-0.33 0.048-0.412 0.2v0l-4.767 9.916c-0.046 0.129-0.032 0.255 0.043 0.376 0.068 0.121 0.166 0.187 0.292 0.2v0l7.482 0.746c0.159 0.016 0.278-0.029 0.356-0.135 0.078-0.106 0.106-0.227 0.086-0.363zM99.474-1.876l9.154 0.543 0.046-0.778-9.154-0.544v0 0 0l-9.114-0.542-0.046 0.779 9.114 0.542v0 0zM98.283 24.74l1.604-26.983-0.779-0.046-1.603 26.983zM97.674 25.044l4.643 3.301 0.429-0.655-4.642-3.311c-0.032-0.029-0.087-0.045-0.167-0.05-0.08-0.005-0.154 0.004-0.222 0.026v0l-4.951 2.742 0.349 0.702 4.951-2.732c0.07-0.063 0.009-0.1-0.184-0.111-0.2-0.012-0.268 0.017-0.206 0.088zM108.923-1.415l3.2-2.936-0.544-0.613-3.21 2.935c-0.031 0.065-0.059 0.143-0.084 0.235-0.019 0.099-0.014 0.183 0.015 0.252v0l2.749 4.651 0.702-0.349-2.749-4.651c-0.027-0.102-0.064-0.041-0.111 0.183-0.047 0.224-0.036 0.322 0.032 0.293zM90.055-3.017l-3.28 4.293 0.655 0.43 3.291-4.293c0.064-0.063 0.092-0.145 0.085-0.245-0.014-0.094-0.05-0.177-0.106-0.247v0l-2.84-3.294-0.613 0.544 2.83 3.294c0.065 0.037 0.094-0.058 0.087-0.285 0-0.227-0.036-0.293-0.109-0.197zM99.265-2.57l-3.786 2.85 0.454 0.618 3.787-2.86c0.07-0.056-0.008-0.091-0.235-0.104-0.233-0.014-0.318 0.011-0.255 0.075v0l3.471 3.292 0.524-0.56-3.471-3.282c-0.063-0.07-0.14-0.109-0.234-0.114-0.1-0.006-0.185 0.022-0.255 0.085zM92.92 27.837v0l9.593 0.57c0.16 0.009 0.277-0.047 0.351-0.169 0.068-0.13 0.076-0.263 0.024-0.4v0c-0.197-0.499-0.366-1.087-0.507-1.763-0.14-0.676-0.215-1.616-0.223-2.818-0.015-1.21 0.013-2.798 0.083-4.763 0.07-1.966 0.196-4.473 0.377-7.521v0c0.135-2.276 0.267-4.215 0.395-5.817 0.129-1.609 0.241-2.981 0.335-4.118v0l-0.412 0.367c1.688 0.134 3.058 0.299 4.108 0.494 1.044 0.189 1.887 0.393 2.528 0.611 0.635 0.218 1.174 0.47 1.618 0.757v0c0.156 0.076 0.293 0.077 0.41 0.005 0.118-0.08 0.181-0.183 0.189-0.31v0l0.451-7.596c0.006-0.1-0.029-0.192-0.104-0.277-0.075-0.085-0.163-0.13-0.262-0.136v0l-24.297-1.443c-0.1-0.006-0.192 0.029-0.277 0.104-0.085 0.075-0.13 0.163-0.136 0.262v0l-0.451 7.597c-0.008 0.126 0.049 0.237 0.171 0.33 0.128 0.088 0.258 0.102 0.388 0.043v0c0.475-0.232 1.033-0.419 1.676-0.561 0.643-0.142 1.504-0.245 2.583-0.308 1.079-0.069 2.465-0.071 4.157-0.003v0l-0.366-0.412c-0.008 1.142-0.049 2.518-0.125 4.129-0.082 1.605-0.191 3.545-0.326 5.821v0c-0.181 3.048-0.353 5.552-0.516 7.513-0.163 1.96-0.324 3.54-0.482 4.74-0.151 1.193-0.326 2.118-0.526 2.773-0.206 0.656-0.453 1.219-0.741 1.689v0c-0.068 0.13-0.066 0.263 0.006 0.402 0.072 0.131 0.175 0.201 0.308 0.208zM102.56 27.629l-9.594-0.57 0.305 0.609c0.289-0.477 0.534-1.06 0.735-1.75 0.201-0.683 0.397-1.629 0.589-2.84 0.185-1.211 0.361-2.824 0.528-4.837 0.166-2.007 0.342-4.568 0.527-7.682v0c0.135-2.276 0.244-4.216 0.326-5.821 0.076-1.612 0.117-2.988 0.125-4.13v0c0.008-0.126-0.03-0.226-0.113-0.297-0.076-0.071-0.16-0.11-0.253-0.116v0c-1.759-0.071-3.195-0.066-4.309 0.015-1.113 0.081-2.015 0.197-2.705 0.35-0.691 0.159-1.29 0.354-1.798 0.584v0l0.569 0.375 0.451-7.597-0.412 0.366 24.297 1.444-0.366-0.412-0.452 7.596 0.609-0.304c-0.477-0.289-1.049-0.553-1.716-0.793-0.667-0.233-1.549-0.456-2.645-0.668-1.096-0.212-2.521-0.387-4.276-0.525v0c-0.093-0.006-0.182 0.023-0.266 0.084-0.09 0.061-0.139 0.155-0.147 0.282v0c-0.094 1.136-0.206 2.509-0.334 4.118-0.129 1.602-0.26 3.541-0.396 5.816v0c-0.185 3.115-0.314 5.678-0.387 7.691-0.073 2.019-0.089 3.641-0.049 4.866 0.047 1.225 0.137 2.189 0.269 2.891 0.138 0.709 0.306 1.317 0.503 1.823v0zM131.726-0.356v0l0.306-0.774c-0.966-0.347-1.935-0.61-2.904-0.79-0.976-0.18-1.935-0.28-2.875-0.299v0 0 0 0c-2.733-0.056-4.892 0.539-6.478 1.787-1.586 1.254-2.402 2.971-2.447 5.15v0 0 0 0c-0.028 1.333 0.316 2.46 1.031 3.382 0.708 0.928 1.641 1.738 2.8 2.429 1.159 0.691 2.382 1.359 3.67 2.006v0 0 0 0c1.155 0.577 2.273 1.177 3.353 1.799 1.074 0.622 1.959 1.347 2.656 2.176 0.703 0.828 1.042 1.842 1.018 3.041v0 0 0 0c-0.043 2.086-0.833 3.68-2.369 4.782-1.537 1.109-3.588 1.636-6.154 1.584v0 0 0 0c-1.006-0.021-2.054-0.132-3.144-0.335-1.083-0.202-2.157-0.491-3.223-0.867v0l-0.316 0.774c1.132 0.377 2.267 0.667 3.403 0.87 1.136 0.203 2.224 0.316 3.263 0.338v0 0 0 0c2.793 0.058 5.032-0.546 6.719-1.812 1.686-1.265 2.553-3.038 2.6-5.318v0 0 0 0c0.028-1.333-0.316-2.444-1.031-3.332-0.715-0.895-1.649-1.688-2.802-2.378-1.159-0.691-2.382-1.359-3.669-2.006v0 0 0 0c-1.162-0.577-2.279-1.184-3.353-1.82-1.074-0.642-1.962-1.384-2.665-2.225-0.696-0.848-1.032-1.872-1.007-3.072v0 0 0 0c0.041-1.986 0.79-3.524 2.246-4.614 1.449-1.09 3.411-1.61 5.883-1.559v0 0 0 0c0.88 0.018 1.788 0.117 2.725 0.296 0.943 0.179 1.865 0.442 2.764 0.787zM132.118-0.448l3.086-2.667-0.478-0.59-3.086 2.667c-0.061 0.065-0.103 0.145-0.125 0.238-0.015 0.1-0.007 0.183 0.025 0.25v0l2.911 5.322 0.688-0.376-2.911-5.321c-0.032-0.067-0.067 0.005-0.104 0.217-0.038 0.206-0.039 0.293-0.006 0.26zM116.574 24.807l-3.087 2.717 0.478 0.59 3.077-2.717c0.068-0.065 0.12-0.144 0.155-0.237 0.035-0.099 0.02-0.183-0.045-0.251v0l-2.91-5.371-0.688 0.376 2.91 5.371c0.065 0.068 0.117-0.011 0.155-0.237 0.031-0.226 0.016-0.306-0.045-0.241zM113.508 19.713v0l-0.167 8.098c-0.002 0.093 0.02 0.174 0.065 0.241 0.045 0.068 0.118 0.119 0.217 0.155v0c1.651 0.454 3.244 0.82 4.779 1.099 1.541 0.272 3.059 0.423 4.551 0.454v0c2.573 0.053 4.851-0.307 6.834-1.08 1.983-0.766 3.551-1.944 4.704-3.533 1.16-1.583 1.764-3.548 1.812-5.894v0c0.038-1.853-0.37-3.398-1.225-4.636-0.855-1.238-1.947-2.267-3.277-3.089-1.337-0.828-2.695-1.563-4.075-2.204v0c-1.003-0.507-1.963-0.991-2.881-1.45-0.917-0.459-1.66-0.971-2.229-1.536-0.575-0.565-0.855-1.205-0.84-1.918v0c0.017-0.846 0.365-1.539 1.043-2.079 0.678-0.539 1.7-0.795 3.066-0.767v0c1.393 0.029 2.874 0.319 4.443 0.872 1.569 0.552 2.976 1.362 4.221 2.428v0c0.125 0.103 0.261 0.122 0.409 0.058 0.148-0.064 0.224-0.175 0.227-0.335v0l0.165-7.999c0.002-0.1-0.02-0.18-0.065-0.241-0.045-0.068-0.118-0.119-0.217-0.155v0c-1.484-0.451-2.924-0.797-4.32-1.039-1.395-0.242-2.759-0.377-4.092-0.404v0c-2.566-0.053-4.818 0.317-6.754 1.111-1.937 0.787-3.458 1.956-4.564 3.506-1.106 1.558-1.681 3.443-1.727 5.656v0c-0.039 1.886 0.369 3.455 1.223 4.706 0.854 1.251 1.946 2.291 3.277 3.118 1.33 0.821 2.688 1.556 4.075 2.205v0c0.997 0.474 1.964 0.941 2.902 1.4 0.931 0.459 1.694 0.955 2.29 1.488 0.589 0.532 0.876 1.172 0.86 1.918v0c-0.018 0.88-0.4 1.605-1.145 2.177-0.745 0.571-1.881 0.841-3.407 0.809v0c-1.526-0.031-3.154-0.325-4.883-0.881-1.729-0.556-3.282-1.401-4.659-2.536v0c-0.125-0.103-0.261-0.122-0.409-0.059-0.148 0.064-0.224 0.175-0.227 0.336zM114.121 27.827l0.167-8.098-0.646 0.277c1.476 1.171 3.108 2.058 4.897 2.661 1.794 0.61 3.505 0.932 5.131 0.966v0c1.82 0.038 3.161-0.318 4.023-1.067 0.862-0.742 1.304-1.637 1.325-2.683v0c0.018-0.873-0.267-1.619-0.854-2.238-0.594-0.612-1.379-1.172-2.356-1.679-0.983-0.507-2.089-1.033-3.318-1.579v0c-1.288-0.613-2.557-1.306-3.808-2.079-1.251-0.773-2.288-1.738-3.111-2.895-0.823-1.157-1.216-2.612-1.18-4.365v0c0.043-2.08 0.583-3.832 1.619-5.258 1.043-1.432 2.472-2.51 4.287-3.232 1.822-0.729 3.936-1.069 6.343-1.02v0c1.3 0.027 2.631 0.161 3.992 0.403 1.362 0.241 2.768 0.587 4.22 1.037v0l-0.282-0.396-0.165 7.999 0.646-0.277c-1.31-1.134-2.789-1.995-4.438-2.582-1.648-0.587-3.219-0.897-4.712-0.928v0c-1.66-0.034-2.887 0.307-3.682 1.025-0.795 0.717-1.203 1.579-1.223 2.585v0c-0.017 0.846 0.261 1.582 0.834 2.208 0.567 0.632 1.342 1.211 2.325 1.738 0.983 0.52 2.068 1.07 3.257 1.647v0c1.288 0.613 2.56 1.306 3.818 2.08 1.251 0.773 2.288 1.731 3.111 2.874 0.823 1.137 1.217 2.566 1.182 4.286v0c-0.046 2.213-0.614 4.048-1.704 5.506-1.084 1.458-2.56 2.541-4.428 3.249-1.875 0.708-4.016 1.037-6.422 0.988v0c-1.426-0.029-2.9-0.18-4.421-0.451-1.528-0.278-3.101-0.644-4.719-1.098v0zM150.521-0.961l9.168-0.192-0.016-0.78-9.168 0.192v0 0 0l-9.128 0.191 0.016 0.78 9.128-0.191v0 0zM151.468 25.665l-0.565-27.024-0.78 0.016 0.566 27.024zM150.886 26.017l4.892 2.919 0.375-0.688-4.892-2.929c-0.034-0.026-0.091-0.038-0.171-0.036-0.08 0.002-0.153 0.017-0.219 0.045v0l-4.715 3.129 0.404 0.672 4.716-3.12c0.065-0.068 0.001-0.1-0.193-0.096-0.2 0.004-0.266 0.039-0.197 0.104zM159.977-1.259l2.954-3.182-0.592-0.568-2.964 3.183c-0.025 0.067-0.047 0.148-0.065 0.241-0.011 0.1 0.001 0.183 0.035 0.249v0l3.113 4.416 0.672-0.404-3.113-4.416c-0.035-0.099-0.067-0.035-0.096 0.192-0.029 0.227-0.01 0.324 0.056 0.289zM141.041-1.343l-2.926 4.543 0.688 0.375 2.936-4.542c0.059-0.068 0.08-0.152 0.065-0.251-0.022-0.093-0.064-0.172-0.125-0.238v0l-3.095-3.056-0.568 0.592 3.085 3.056c0.067 0.032 0.089-0.065 0.064-0.291-0.018-0.226-0.059-0.289-0.124-0.188zM150.257-1.635l-3.545 3.144 0.502 0.58 3.545-3.155c0.065-0.061-0.015-0.09-0.242-0.085-0.233 0.005-0.316 0.037-0.248 0.095v0l3.724 3.003 0.477-0.6-3.723-2.993c-0.068-0.065-0.149-0.097-0.242-0.095-0.1 0.002-0.183 0.037-0.248 0.106zM146.371 29.183v0l9.608-0.201c0.16-0.003 0.272-0.069 0.336-0.198 0.057-0.135 0.054-0.268-0.009-0.399v0c-0.237-0.482-0.452-1.054-0.646-1.717-0.194-0.663-0.343-1.593-0.448-2.792-0.112-1.205-0.212-2.79-0.3-4.754-0.088-1.965-0.164-4.474-0.227-7.527v0c-0.048-2.28-0.072-4.223-0.072-5.83 0-1.614 0.001-2.991 0.003-4.131v0l-0.382 0.398c1.694-0.002 3.072 0.052 4.135 0.164 1.056 0.105 1.912 0.24 2.569 0.406 0.65 0.166 1.208 0.375 1.673 0.625v0c0.161 0.063 0.298 0.054 0.41-0.028 0.111-0.089 0.166-0.197 0.163-0.324v0l-0.159-7.608c-0.002-0.1-0.044-0.189-0.126-0.268-0.082-0.078-0.172-0.116-0.272-0.114v0l-24.335 0.509c-0.1 0.002-0.189 0.044-0.267 0.126-0.078 0.082-0.116 0.172-0.115 0.272v0l0.16 7.609c0.003 0.127 0.068 0.232 0.196 0.316 0.135 0.077 0.265 0.081 0.391 0.011v0c0.454-0.27 0.996-0.501 1.625-0.694 0.629-0.193 1.479-0.364 2.55-0.513 1.07-0.156 2.452-0.268 4.144-0.337v0l-0.398-0.382c0.084 1.138 0.153 2.514 0.206 4.127 0.047 1.606 0.094 3.549 0.142 5.828v0c0.064 3.053 0.093 5.563 0.088 7.53-0.005 1.967-0.039 3.555-0.1 4.763-0.055 1.201-0.155 2.137-0.302 2.807-0.153 0.67-0.354 1.251-0.603 1.743v0c-0.057 0.135-0.044 0.268 0.038 0.399 0.083 0.125 0.191 0.186 0.324 0.184zM155.962 28.202l-9.607 0.201 0.352 0.583c0.25-0.499 0.447-1.1 0.592-1.803 0.145-0.697 0.265-1.656 0.36-2.878 0.088-1.222 0.134-2.843 0.138-4.864 0.005-2.014-0.026-4.58-0.091-7.7v0c-0.048-2.28-0.095-4.222-0.142-5.828-0.054-1.613-0.123-2.988-0.206-4.127v0c-0.003-0.127-0.048-0.222-0.136-0.287-0.081-0.065-0.169-0.096-0.262-0.095v0c-1.759 0.07-3.19 0.19-4.294 0.36-1.103 0.17-1.993 0.358-2.668 0.566-0.676 0.214-1.257 0.456-1.746 0.727v0l0.597 0.327-0.159-7.608-0.382 0.398 24.335-0.509-0.398-0.382 0.159 7.608 0.583-0.352c-0.499-0.25-1.09-0.467-1.774-0.653-0.684-0.179-1.581-0.33-2.69-0.454-1.109-0.123-2.544-0.183-4.305-0.18v0c-0.093 0.002-0.179 0.037-0.258 0.106-0.085 0.068-0.127 0.166-0.124 0.292v0c-0.003 1.14-0.004 2.517-0.003 4.131 0 1.607 0.024 3.55 0.072 5.83v0c0.065 3.119 0.142 5.685 0.231 7.697 0.089 2.019 0.203 3.637 0.342 4.854 0.145 1.217 0.312 2.171 0.5 2.86 0.195 0.696 0.41 1.288 0.647 1.777v0zM171.417 12.926l0.79 11.933 0.778-0.051-0.789-11.934v0 0 0l-1.002-15.137c-0.006-0.093-0.093-0.044-0.261 0.148-0.168 0.185-0.202 0.274-0.102 0.267v0l7.833-0.518v0 0 0c2.401-0.159 4.337 0.368 5.807 1.58 1.463 1.206 2.267 2.91 2.412 5.112v0 0 0 0c0.129 1.949-0.322 3.609-1.354 4.98-1.038 1.372-2.458 2.23-4.259 2.577v0c0 0 0.01-0.001 0.03-0.002 0.013-0.001 0.02-0.001 0.02-0.001v0l-9.539 0.631 0.051 0.778 9.539-0.631c0 0 0.01-0.001 0.03-0.002 0.013-0.001 0.02-0.001 0.02-0.001v0c1.992-0.392 3.565-1.352 4.721-2.878 1.155-1.526 1.662-3.36 1.52-5.503v0 0 0 0c-0.159-2.401-1.042-4.281-2.648-5.637-1.607-1.364-3.741-1.957-6.402-1.781v0 0 0 0l-7.833 0.518c-0.1 0.007-0.187 0.056-0.261 0.147-0.075 0.085-0.109 0.174-0.102 0.268v0l1.001 15.137v0 0zM190.304 23.462l-8.632-11.405-0.652 0.434 8.621 11.406zM172.066 13.183l3.269-3.152-0.528-0.557-3.259 3.152c-0.095 0.073-0.139 0.173-0.131 0.3 0.009 0.133 0.065 0.23 0.17 0.289v0l3.695 2.682 0.45-0.611-3.705-2.691c-0.098-0.06-0.138 0.039-0.121 0.298 0.017 0.259 0.07 0.356 0.16 0.29zM172.419 25.186l4.979 2.697 0.344-0.704-4.98-2.707c-0.028-0.025-0.086-0.034-0.172-0.029-0.08 0.005-0.152 0.023-0.217 0.055v0l-4.609 3.341 0.434 0.653 4.61-3.332c0.062-0.071-0.003-0.1-0.196-0.087-0.193 0.013-0.257 0.05-0.193 0.113zM170.972-2.589l-5.009-2.695-0.344 0.704 5.01 2.705c0 0-0.007-0.01-0.022-0.028-0.014-0.012-0.021-0.019-0.022-0.019v0l3.845 2.822 0.45-0.621-3.855-2.821c0 0 0-0.007-0.001-0.02-0.001-0.02-0.019-0.029-0.052-0.027zM180.994 12.102l-1.613 3.043 0.714 0.343 1.603-3.042c0.062-0.071-0.017-0.059-0.238 0.036-0.22 0.101-0.283 0.162-0.188 0.182v0l5.016 1.142 0.148-0.792-5.016-1.141c-0.068-0.022-0.141-0.007-0.218 0.044-0.077 0.052-0.146 0.113-0.208 0.185zM189.851 24.033l7.493 2.531 0.255-0.698-7.505-2.541c-0.07-0.055-0.135-0.075-0.194-0.057-0.065 0.024-0.129 0.069-0.191 0.133v0l-3.253 3.252 0.517 0.547 3.264-3.243c0.062-0.071-0.005-0.083-0.203-0.036-0.191 0.046-0.252 0.083-0.183 0.112zM168.002 28.555v0l9.589-0.634c0.16-0.011 0.269-0.081 0.326-0.212 0.058-0.137 0.049-0.27-0.026-0.399v0c-0.296-0.528-0.56-1.192-0.793-1.992-0.233-0.8-0.44-1.962-0.622-3.487-0.181-1.518-0.376-3.606-0.585-6.265v0l-0.363 0.415 4.241-0.281-0.362-0.166c1.37 1.927 2.496 3.54 3.377 4.837 0.887 1.291 1.579 2.351 2.074 3.18 0.496 0.829 0.848 1.507 1.057 2.035 0.215 0.52 0.353 0.992 0.414 1.416v0c0.007 0.1 0.052 0.177 0.136 0.231 0.084 0.061 0.176 0.089 0.276 0.082v0l10.756-0.711c0.166-0.011 0.284-0.099 0.353-0.264 0.069-0.172 0.019-0.315-0.148-0.431v0c-0.523-0.426-1.079-0.911-1.67-1.453-0.584-0.549-1.273-1.272-2.068-2.168-0.794-0.89-1.777-2.071-2.95-3.543-1.173-1.472-2.615-3.325-4.326-5.557v0l-0.114 0.549c1.563-1.019 2.769-2.378 3.619-4.078 0.85-1.7 1.205-3.604 1.065-5.713v0c-0.144-2.175-0.755-4.042-1.834-5.601-1.085-1.558-2.566-2.74-4.444-3.544-1.877-0.805-4.083-1.123-6.617-0.956v0l-12.603 0.834c-0.126 0.008-0.229 0.072-0.308 0.191-0.072 0.118-0.07 0.255 0.008 0.41v0c0.29 0.442 0.536 0.98 0.738 1.615 0.209 0.641 0.392 1.527 0.546 2.66 0.155 1.126 0.316 2.611 0.486 4.458 0.176 1.846 0.359 4.215 0.55 7.109v0c0.202 3.047 0.341 5.553 0.417 7.519 0.083 1.965 0.125 3.553 0.125 4.762-0.001 1.203-0.062 2.142-0.184 2.818-0.116 0.676-0.287 1.265-0.515 1.768v0c-0.058 0.137-0.042 0.27 0.047 0.398 0.095 0.121 0.205 0.177 0.332 0.168zM174.686 0.984l4.231-0.28c1.33-0.088 2.37 0.217 3.117 0.916 0.748 0.699 1.165 1.697 1.251 2.994v0c0.084 1.264-0.182 2.3-0.797 3.109-0.615 0.809-1.457 1.249-2.528 1.32v0l-4.92 0.326 0.415 0.363c-0.137-2.075-0.238-3.853-0.302-5.332-0.064-1.479-0.098-2.74-0.1-3.781v0zM177.539 27.142l-9.589 0.635 0.378 0.566c0.227-0.509 0.4-1.119 0.521-1.828 0.114-0.702 0.187-1.666 0.219-2.891 0.033-1.225 0.005-2.847-0.081-4.865-0.08-2.012-0.223-4.575-0.428-7.689v0c-0.195-2.954-0.383-5.38-0.562-7.279-0.172-1.893-0.353-3.411-0.542-4.554-0.189-1.143-0.386-2.042-0.589-2.697-0.21-0.654-0.461-1.219-0.754-1.694v0l-0.3 0.611 12.602-0.833c2.375-0.157 4.432 0.131 6.171 0.864 1.746 0.733 3.13 1.821 4.154 3.263 1.025 1.449 1.605 3.198 1.741 5.247v0c0.131 1.976-0.193 3.748-0.972 5.315-0.772 1.568-1.894 2.825-3.368 3.771v0c-0.091 0.039-0.142 0.123-0.154 0.251-0.004 0.134 0.012 0.23 0.049 0.287v0c1.747 2.263 3.214 4.14 4.401 5.632 1.187 1.485 2.196 2.688 3.025 3.608 0.829 0.921 1.539 1.655 2.13 2.204 0.591 0.549 1.144 1.033 1.66 1.454v0l0.195-0.694-10.757 0.711 0.412 0.314c-0.061-0.417-0.2-0.895-0.416-1.436-0.209-0.541-0.563-1.236-1.06-2.085-0.497-0.849-1.19-1.936-2.08-3.259-0.883-1.325-2.041-2.982-3.475-4.972v0c-0.109-0.126-0.226-0.185-0.353-0.177v0l-4.241 0.281c-0.093 0.006-0.18 0.052-0.261 0.137-0.075 0.085-0.109 0.178-0.102 0.277v0c0.216 2.758 0.426 4.919 0.629 6.483 0.197 1.57 0.423 2.761 0.678 3.573 0.248 0.819 0.521 1.512 0.819 2.081v0zM178.865-0.074v0l-4.23 0.279c-0.1 0.007-0.188 0.042-0.264 0.108-0.075 0.072-0.11 0.158-0.103 0.257v0c0.007 1.109 0.042 2.402 0.106 3.882 0.064 1.479 0.165 3.256 0.303 5.332v0c0.006 0.093 0.052 0.18 0.138 0.261 0.092 0.074 0.184 0.108 0.277 0.102v0l4.919-0.326c1.264-0.084 2.281-0.609 3.053-1.574 0.765-0.959 1.098-2.187 0.999-3.684v0c-0.099-1.49-0.607-2.662-1.526-3.517-0.925-0.847-2.149-1.221-3.672-1.12zM221.133 11.998l-2.089-18.623-0.776 0.087 2.09 18.623v0 0 0c0.297 2.65-0.305 4.844-1.808 6.582-1.509 1.739-3.621 2.761-6.337 3.066v0 0 0 0c-2.71 0.304-4.993-0.225-6.85-1.586-1.857-1.361-2.934-3.367-3.231-6.018v0 0 0 0l-2.089-18.623-0.775 0.087 2.089 18.623v0 0 0c0.213 1.901 0.813 3.511 1.8 4.83 0.979 1.312 2.254 2.273 3.825 2.881 1.578 0.608 3.35 0.801 5.318 0.581v0 0 0 0c1.974-0.221 3.66-0.803 5.057-1.745 1.404-0.942 2.438-2.162 3.101-3.658 0.663-1.503 0.888-3.206 0.675-5.107v0 0 0zM199.816-4.81l-5.136-2.463-0.312 0.719 5.137 2.473c0.063 0.02 0.137 0.025 0.224 0.015 0.08-0.009 0.134-0.028 0.164-0.059v0l4.412-3.544-0.463-0.632-4.413 3.534c-0.063 0.041 0.002 0.05 0.194 0.029 0.192-0.022 0.257-0.046 0.193-0.072zM218.817-6.942l-5.087-2.468-0.312 0.719 5.088 2.478c0.069 0.019 0.144 0.024 0.223 0.015 0.08-0.009 0.134-0.028 0.165-0.058v0l4.462-3.55-0.463-0.632-4.464 3.539c-0.063 0.041 0.002 0.05 0.195 0.029 0.199-0.022 0.263-0.046 0.193-0.072zM212.648 25.609v0c2.617-0.294 4.881-1.037 6.793-2.232 1.911-1.201 3.333-2.759 4.266-4.674 0.931-1.923 1.259-4.113 0.983-6.571v0l-0.684-6.102c-0.323-2.882-0.565-5.246-0.726-7.093-0.16-1.847-0.264-3.338-0.31-4.473-0.041-1.143-0.012-2.048 0.087-2.717 0.107-0.663 0.247-1.235 0.421-1.718v0c0.048-0.166 0.033-0.302-0.045-0.407-0.072-0.106-0.191-0.15-0.357-0.131v0l-9.55 1.071c-0.126 0.014-0.222 0.082-0.289 0.204-0.073 0.122-0.068 0.259 0.016 0.411v0c0.31 0.428 0.583 0.954 0.821 1.578 0.232 0.631 0.451 1.509 0.657 2.633 0.206 1.117 0.439 2.594 0.698 4.43 0.253 1.837 0.541 4.196 0.865 7.077v0l0.571 5.089c0.199 1.776-0.14 3.269-1.017 4.481-0.877 1.212-2.207 1.918-3.989 2.118v0c-1.776 0.199-3.225-0.195-4.349-1.183-1.124-0.988-1.785-2.369-1.984-4.144v0l-0.571-5.088c-0.323-2.882-0.565-5.246-0.725-7.094-0.16-1.847-0.264-3.338-0.311-4.473-0.041-1.143-0.012-2.048 0.088-2.717 0.107-0.663 0.247-1.235 0.421-1.717v0c0.048-0.166 0.033-0.302-0.046-0.408-0.072-0.106-0.191-0.15-0.357-0.131v0l-9.55 1.072c-0.126 0.014-0.222 0.082-0.289 0.203-0.073 0.122-0.068 0.259 0.016 0.411v0c0.31 0.428 0.583 0.954 0.821 1.578 0.232 0.631 0.451 1.509 0.658 2.633 0.206 1.117 0.439 2.594 0.698 4.43 0.253 1.837 0.541 4.196 0.864 7.078v0l0.685 6.101c0.276 2.458 1.081 4.521 2.415 6.19 1.327 1.662 3.055 2.867 5.185 3.614 2.129 0.741 4.502 0.964 7.12 0.671zM212.561 24.834v0c-2.451 0.275-4.674 0.075-6.669-0.601-1.988-0.676-3.619-1.794-4.895-3.355-1.269-1.562-2.033-3.505-2.294-5.831v0l-0.684-6.101c-0.33-2.942-0.624-5.357-0.884-7.247-0.265-1.882-0.518-3.39-0.759-4.524-0.241-1.134-0.478-2.023-0.712-2.667-0.24-0.644-0.517-1.197-0.83-1.658v0l-0.272 0.625 9.55-1.072-0.403-0.548c-0.17 0.516-0.308 1.115-0.413 1.797-0.105 0.683-0.149 1.603-0.133 2.762 0.016 1.159 0.107 2.685 0.273 4.578 0.166 1.9 0.414 4.321 0.744 7.262v0l0.571 5.089c0.228 2.034 0.991 3.599 2.287 4.694 1.304 1.101 2.94 1.542 4.908 1.321v0c1.974-0.221 3.472-1.013 4.493-2.376 1.029-1.356 1.429-3.052 1.201-5.085v0l-0.571-5.089c-0.33-2.942-0.624-5.357-0.883-7.246-0.265-1.882-0.518-3.39-0.759-4.524-0.241-1.134-0.478-2.023-0.712-2.667-0.233-0.645-0.51-1.197-0.83-1.658v0l-0.272 0.624 9.55-1.071-0.404-0.548c-0.17 0.516-0.308 1.115-0.412 1.797-0.105 0.683-0.149 1.603-0.133 2.762 0.016 1.159 0.107 2.685 0.272 4.578 0.166 1.9 0.414 4.321 0.744 7.262v0l0.685 6.102c0.261 2.325-0.058 4.39-0.955 6.195-0.891 1.804-2.234 3.256-4.03 4.356-1.789 1.1-3.912 1.787-6.369 2.063zM236.377 18.551l4.934 2.222 0.27-0.736-4.936-2.232c-0.031-0.022-0.095-0.024-0.194-0.008-0.099 0.017-0.175 0.043-0.229 0.08v0l-3.868 3.734 0.588 0.589 3.869-3.723c0.055-0.077-0.023-0.097-0.234-0.062-0.204 0.035-0.27 0.08-0.2 0.136zM263.555 13.915l5.022 2.207 0.27-0.736-5.024-2.217c-0.037-0.021-0.099-0.024-0.184-0.009-0.079 0.013-0.146 0.038-0.2 0.075v0l-4.016 3.759 0.499 0.604 4.017-3.748c0.048-0.076-0.023-0.097-0.214-0.065-0.191 0.033-0.247 0.076-0.17 0.13zM231.654-8.308l4.109 4.94 0.605-0.499-4.109-4.939c-0.038-0.027-0.065-0.046-0.081-0.058-0.023-0.016-0.037-0.041-0.043-0.073v0l-4.885-2.231-0.358 0.751 4.886 2.24c0.026-0.004 0.004-0.035-0.066-0.09-0.077-0.055-0.096-0.068-0.058-0.041zM259.379-12.884l4.006-3.757-0.499-0.605-4.007 3.747c-0.027 0.038-0.049 0.069-0.066 0.092-0.011 0.015-0.03 0.042-0.057 0.081v0l-2.378 5.803 0.736 0.27 2.378-5.803c-0.006-0.033-0.036-0.011-0.09 0.066-0.048 0.076-0.055 0.111-0.023 0.106zM231.571-8.496l4.562 26.743 0.768-0.131-4.561-26.744c-0.016-0.092-0.097-0.034-0.244 0.174-0.148 0.201-0.173 0.293-0.075 0.277v0l4.663-0.796c0.066-0.011-0.001-0.064-0.2-0.158-0.2-0.101-0.275-0.105-0.225-0.013v0l13.412 24.93c0.086 0.148 0.228 0.205 0.425 0.171 0.191-0.033 0.305-0.133 0.344-0.302v0l4.617-28.005c0.016-0.104-0.053-0.075-0.208 0.086-0.15 0.154-0.195 0.226-0.136 0.216v0l4.476-0.763c0.099-0.017 0.045-0.096-0.162-0.236-0.208-0.147-0.304-0.175-0.288-0.083v0l4.561 26.744 0.769-0.131-4.561-26.744c-0.016-0.092-0.07-0.171-0.162-0.236-0.093-0.072-0.189-0.1-0.288-0.083v0l-4.476 0.763c-0.059 0.01-0.117 0.047-0.174 0.111-0.058 0.057-0.114 0.124-0.168 0.201v0l-4.617 28.005c0 0.196 0.151 0.269 0.453 0.217 0.302-0.052 0.408-0.168 0.316-0.348v0l-13.413-24.93c-0.044-0.06-0.109-0.106-0.196-0.139-0.088-0.039-0.165-0.053-0.23-0.042v0l-4.663 0.796c-0.099 0.017-0.18 0.075-0.244 0.173-0.065 0.092-0.09 0.184-0.075 0.277zM236.915-9.104l2.951-3.577-0.581-0.489-2.952 3.567c-0.027 0.038-0.05 0.066-0.067 0.083-0.01 0.022-0.025 0.069-0.047 0.14v0l-0.554 5.734 0.801 0.057 0.553-5.735c-0.006-0.033-0.033 0.006-0.081 0.115-0.042 0.109-0.05 0.144-0.023 0.105zM254.28-12.268l2.097 5.039 0.736-0.328-2.096-5.03c-0.032-0.028-0.051-0.059-0.056-0.092-0.006-0.033-0.028-0.063-0.066-0.09v0l-3.593-2.45-0.475 0.669 3.585 2.462c0.071 0.022 0.064-0.021-0.021-0.128-0.085-0.101-0.122-0.118-0.111-0.052zM249.719 15.829l2.343 2.968 0.603-0.509-2.331-2.96c-0.088-0.12-0.204-0.168-0.349-0.143-0.145 0.025-0.255 0.111-0.331 0.259v0l-1.553 3.623 0.737 0.28 1.561-3.634c0.037-0.142-0.087-0.195-0.372-0.16-0.293 0.03-0.395 0.122-0.308 0.276zM250.415 15.507l-1.256-8.794-0.769 0.131 1.256 8.794zM232.714 22.29v0l8.802-1.502c0.158-0.027 0.259-0.108 0.304-0.244 0.043-0.143 0.021-0.274-0.068-0.394v0c-0.305-0.442-0.603-0.976-0.892-1.603-0.29-0.627-0.575-1.525-0.855-2.695-0.282-1.176-0.614-2.729-0.998-4.658-0.377-1.931-0.822-4.401-1.335-7.411v0c-0.208-1.222-0.433-2.537-0.672-3.943-0.241-1.413-0.425-2.589-0.551-3.528v0l-0.744 0.279c0.6 1.02 1.251 2.181 1.953 3.481 0.701 1.294 1.499 2.74 2.394 4.339v0c1.518 2.676 2.755 4.89 3.709 6.641 0.961 1.75 1.722 3.155 2.282 4.217 0.559 1.054 0.988 1.887 1.288 2.499 0.3 0.612 0.557 1.146 0.771 1.603v0c0.049 0.086 0.11 0.15 0.185 0.192 0.067 0.036 0.15 0.045 0.248 0.028v0l3.894-0.664c0.099-0.017 0.174-0.053 0.225-0.109 0.057-0.064 0.094-0.144 0.11-0.242v0c0.05-0.502 0.115-1.091 0.196-1.768 0.081-0.677 0.22-1.606 0.417-2.79 0.189-1.189 0.454-2.769 0.794-4.741 0.34-1.972 0.796-4.474 1.367-7.507v0c0.338-1.904 0.643-3.606 0.915-5.106 0.273-1.494 0.507-2.819 0.702-3.975v0l-0.795-0.017c0.219 1.085 0.453 2.357 0.702 3.817 0.249 1.459 0.469 2.75 0.661 3.874v0c0.513 3.01 0.912 5.488 1.197 7.434 0.285 1.947 0.486 3.522 0.603 4.726 0.123 1.196 0.162 2.137 0.116 2.821-0.052 0.685-0.166 1.29-0.34 1.813v0c-0.037 0.142-0.004 0.271 0.097 0.389 0.1 0.111 0.216 0.156 0.347 0.134v0l9.04-1.542c0.158-0.027 0.259-0.108 0.303-0.245 0.037-0.142 0.014-0.273-0.067-0.394v0c-0.305-0.442-0.603-0.976-0.893-1.603-0.29-0.627-0.575-1.525-0.855-2.694-0.282-1.176-0.614-2.729-0.997-4.659-0.377-1.931-0.822-4.401-1.335-7.411v0c-0.488-2.859-0.864-5.205-1.13-7.04-0.259-1.836-0.444-3.319-0.556-4.45-0.113-1.137-0.135-2.043-0.068-2.717 0.069-0.668 0.176-1.247 0.322-1.739v0c0.032-0.168 0.009-0.303-0.069-0.405-0.085-0.101-0.206-0.137-0.364-0.11v0l-12.075 2.06c-0.092 0.016-0.174 0.07-0.246 0.163-0.065 0.092-0.09 0.188-0.073 0.287v0c0.099 0.578 0.169 1.226 0.21 1.942 0.041 0.717 0.021 1.67-0.06 2.861-0.076 1.183-0.256 2.779-0.543 4.789-0.286 2.01-0.698 4.613-1.234 7.809v0l-0.687 4.124 0.769-0.131-2.015-3.663c-1.578-2.869-2.825-5.206-3.742-7.011-0.917-1.805-1.6-3.254-2.05-4.347-0.451-1.1-0.768-1.986-0.95-2.658-0.183-0.679-0.324-1.307-0.423-1.886v0c-0.017-0.099-0.071-0.181-0.164-0.246-0.092-0.065-0.188-0.09-0.286-0.073v0l-12.5 2.132c-0.125 0.021-0.22 0.095-0.286 0.221-0.06 0.125-0.043 0.261 0.049 0.408v0c0.334 0.41 0.634 0.92 0.9 1.53 0.274 0.616 0.546 1.479 0.817 2.59 0.269 1.104 0.583 2.565 0.94 4.384 0.364 1.818 0.79 4.156 1.278 7.015v0c0.513 3.01 0.909 5.489 1.187 7.437 0.285 1.947 0.489 3.521 0.613 4.724 0.123 1.196 0.158 2.137 0.106 2.822-0.046 0.684-0.156 1.288-0.33 1.811v0c-0.043 0.143-0.014 0.273 0.087 0.391 0.107 0.11 0.223 0.155 0.348 0.134zM241.385 20.019l-8.803 1.502 0.435 0.524c0.173-0.53 0.283-1.154 0.33-1.872 0.041-0.71 0.015-1.676-0.079-2.898-0.093-1.222-0.287-2.832-0.58-4.831-0.286-1.994-0.691-4.528-1.216-7.604v0c-0.498-2.918-0.933-5.312-1.306-7.182-0.365-1.865-0.701-3.357-1.007-4.475-0.306-1.118-0.593-1.992-0.863-2.622-0.276-0.629-0.584-1.165-0.924-1.608v0l-0.235 0.639 12.499-2.132-0.45-0.319c0.099 0.578 0.241 1.213 0.426 1.906 0.186 0.692 0.505 1.594 0.959 2.707 0.454 1.113 1.143 2.595 2.067 4.446 0.925 1.857 2.18 4.234 3.762 7.129v0l2.015 3.663c0.094 0.153 0.236 0.213 0.426 0.181 0.191-0.033 0.305-0.137 0.343-0.312v0l0.686-4.124c0.533-3.256 0.937-5.905 1.211-7.947 0.279-2.049 0.454-3.682 0.524-4.898 0.076-1.217 0.094-2.184 0.053-2.9-0.041-0.717-0.111-1.364-0.209-1.942v0l-0.319 0.45 12.076-2.06-0.445-0.523c-0.14 0.524-0.243 1.13-0.308 1.818-0.059 0.686-0.047 1.607 0.035 2.763 0.076 1.157 0.25 2.676 0.523 4.557 0.275 1.887 0.661 4.29 1.159 7.208v0c0.525 3.076 0.979 5.602 1.363 7.579 0.386 1.983 0.74 3.566 1.064 4.749 0.317 1.184 0.619 2.103 0.906 2.756 0.295 0.66 0.596 1.214 0.903 1.662v0l0.245-0.64-9.039 1.542 0.434 0.524c0.173-0.53 0.28-1.154 0.32-1.87 0.041-0.71 0.018-1.677-0.068-2.9-0.093-1.222-0.287-2.832-0.581-4.831-0.293-1.993-0.701-4.527-1.225-7.602v0c-0.192-1.124-0.412-2.415-0.661-3.874-0.249-1.459-0.483-2.731-0.702-3.817v0c-0.038-0.223-0.172-0.333-0.4-0.327-0.229 0.005-0.36 0.109-0.394 0.31v0c-0.147 0.884-0.294 1.744-0.442 2.582-0.156 0.831-0.322 1.759-0.499 2.783-0.172 1.017-0.396 2.259-0.673 3.726v0c-0.566 3.065-1.019 5.584-1.359 7.556-0.34 1.972-0.604 3.559-0.791 4.761-0.194 1.203-0.331 2.143-0.412 2.82-0.082 0.67-0.148 1.256-0.197 1.758v0l0.336-0.352-3.894 0.664 0.433 0.221c-0.213-0.457-0.47-0.988-0.769-1.594-0.3-0.612-0.732-1.454-1.293-2.528-0.562-1.074-1.324-2.486-2.285-4.236-0.955-1.751-2.194-3.981-3.718-6.691v0c-0.906-1.665-1.715-3.136-2.427-4.414-0.718-1.277-1.358-2.413-1.92-3.406v0c-0.131-0.174-0.296-0.23-0.495-0.169-0.205 0.069-0.288 0.215-0.25 0.438v0c0.126 0.939 0.31 2.115 0.551 3.528 0.24 1.406 0.464 2.721 0.673 3.943v0c0.525 3.076 0.979 5.602 1.363 7.578 0.392 1.982 0.747 3.565 1.064 4.749 0.317 1.184 0.622 2.102 0.916 2.755 0.289 0.661 0.589 1.215 0.902 1.662v0z" opacity="1" transform="matrix(1,0,0,1,0,0)" fill="#ffffff" class="wordmark-text-0" data-fill-palette-color="primary" id="text-0"></path></svg></g></svg></g></svg></g></svg></g><g transform="matrix(1,0,0,1,177.36125381053236,0)"><svg viewBox="0 0 40.79749237893526 70.3178971457504" height="70.3178971457504" width="40.79749237893526"><g><svg xmlns="http://www.w3.org/2000/svg" xmlns:xlink="http://www.w3.org/1999/xlink" version="1.1" x="0" y="0" viewBox="21.679106830508623 1 56.85827385947761 98" enable-background="new 0 0 100 100" xml:space="preserve" height="70.3178971457504" width="40.79749237893526" class="icon-icon-0" data-fill-palette-color="accent" id="icon-0"><g fill="#ffffff" data-fill-palette-color="accent"><path fill-rule="evenodd" clip-rule="evenodd" d="M30.545 28.822c-1.165 7.217 0.33 14.85 6.5 19.041C30.758 19.81 45.756 8.664 59.646 1c-16.18 23.046 16.896 23.644 18.777 50.13C80.028 73.71 64.507 91.317 46.639 99c0.206-22.825-22.55-25.933-24.838-44.603C20.905 47.094 25.062 33.766 30.545 28.822z" fill="#ffffff" data-fill-palette-color="accent"></path></g></svg></g></svg></g><g></g></svg></g><defs></defs></svg><rect width="395.52" height="144.8738531739145" fill="none" stroke="none" visibility="hidden"></rect></g></svg></g></svg>